<svg width="0" height="0" class="hidden">
<symbol fill="none" xmlns="http://www.w3.org/2000/svg" id="css">
    <g id="SVGRepo_bgCarrier" stroke-width="0"></g>
    <g id="SVGRepo_tracerCarrier" stroke-linecap="round" stroke-linejoin="round"></g>
    <g id="SVGRepo_iconCarrier">
      <path d="M6 28L4 3H28L26 28L16 31L6 28Z" fill="#1172B8"></path>
      <path d="M26 5H16V29.5L24 27L26 5Z" fill="#33AADD"></path>
      <path d="M19.5 17.5H9.5L9 14L17 11.5H9L8.5 8.5H24L23.5 12L17 14.5H23L22 24L16 26L10 24L9.5 19H12.5L13 21.5L16 22.5L19 21.5L19.5 17.5Z" fill="white"></path>
    </g>
  </symbol>
  <symbol fill="none" xmlns="http://www.w3.org/2000/svg" id="html">
    <g id="SVGRepo_bgCarrier" stroke-width="0"></g>
    <g id="SVGRepo_tracerCarrier" stroke-linecap="round" stroke-linejoin="round"></g>
    <g id="SVGRepo_iconCarrier">
      <path d="M6 28L4 3H28L26 28L16 31L6 28Z" fill="#E44D26"></path>
      <path d="M26 5H16V29.5L24 27L26 5Z" fill="#F16529"></path>
      <path d="M9.5 17.5L8.5 8H24L23.5 11H11.5L12 14.5H23L22 24L16 26L10 24L9.5 19H12.5L13 21.5L16 22.5L19 21.5L19.5 17.5H9.5Z" fill="white"></path>
    </g>
  </symbol>
  <symbol stroke="currentColor" fill="currentColor" width="1em" height="1em" stroke-width="0" xmlns="http://www.w3.org/2000/svg" viewBox="0 0 32 32" id="next-js">
    <path d="M17.6644 17.6493L10.2602 8H8V16H10V10.9462L16.0869 18.8788C14.8907 19.5909 13.4931 20 12 20C7.58172 20 4 16.4183 4 12C4 7.58172 7.58172 4 12 4C16.4183 4 20 7.58172 20 12C20 14.2053 19.1077 16.2022 17.6644 17.6493ZM12 22C17.5228 22 22 17.5228 22 12C22 6.47715 17.5228 2 12 2C6.47715 2 2 6.47715 2 12C2 17.5228 6.47715 22 12 22ZM14 12V8H16V12H14Z"></path>
  </symbol>
  <symbol stroke="currentColor" fill="currentColor" stroke-width="0" role="img" xmlns="http://www.w3.org/2000/svg" viewBox="0 0 32 32" id="python">
    <path d="M14.25.18l.9.2.73.26.59.3.45.32.34.34.25.34.16.33.1.3.04.26.02.2-.01.13V8.5l-.05.63-.13.55-.21.46-.26.38-.3.31-.33.25-.35.19-.35.14-.33.1-.3.07-.26.04-.21.02H8.77l-.69.05-.59.14-.5.22-.41.27-.33.32-.27.35-.2.36-.15.37-.1.35-.07.32-.04.27-.02.21v3.06H3.17l-.21-.03-.28-.07-.32-.12-.35-.18-.36-.26-.36-.36-.35-.46-.32-.59-.28-.73-.21-.88-.14-1.05-.05-1.23.06-1.22.16-1.04.24-.87.32-.71.36-.57.4-.44.42-.33.42-.24.4-.16.36-.1.32-.05.24-.01h.16l.06.01h8.16v-.83H6.18l-.01-2.75-.02-.37.05-.34.11-.31.17-.28.25-.26.31-.23.38-.2.44-.18.51-.15.58-.12.64-.1.71-.06.77-.04.84-.02 1.27.05zm-6.3 1.98l-.23.33-.08.41.08.41.23.34.33.22.41.09.41-.09.33-.22.23-.34.08-.41-.08-.41-.23-.33-.33-.22-.41-.09-.41.09zm13.09 3.95l.28.06.32.12.35.18.36.27.36.35.35.47.32.59.28.73.21.88.14 1.04.05 1.23-.06 1.23-.16 1.04-.24.86-.32.71-.36.57-.4.45-.42.33-.42.24-.4.16-.36.09-.32.05-.24.02-.16-.01h-8.22v.82h5.84l.01 2.76.02.36-.05.34-.11.31-.17.29-.25.25-.31.24-.38.2-.44.17-.51.15-.58.13-.64.09-.71.07-.77.04-.84.01-1.27-.04-1.07-.14-.9-.2-.73-.25-.59-.3-.45-.33-.34-.34-.25-.34-.16-.33-.1-.3-.04-.25-.02-.2.01-.13v-5.34l.05-.64.13-.54.21-.46.26-.38.3-.32.33-.24.35-.2.35-.14.33-.1.3-.06.26-.04.21-.02.13-.01h5.84l.69-.05.59-.14.5-.21.41-.28.33-.32.27-.35.2-.36.15-.36.1-.35.07-.32.04-.28.02-.21V6.07h2.09l.14.01zm-6.47 14.25l-.23.33-.08.41.08.41.23.33.33.23.41.08.41-.08.33-.23.23-.33.08-.41-.08-.41-.23-.33-.33-.23-.41-.08-.41.08z"></path>
  </symbol>
  <symbol stroke="currentColor" fill="currentColor" stroke-width="0" xmlns="http://www.w3.org/2000/svg" viewBox="0 0 32 32" id="react-js">
    <path d="M418.2 177.2c-5.4-1.8-10.8-3.5-16.2-5.1.9-3.7 1.7-7.4 2.5-11.1 12.3-59.6 4.2-107.5-23.1-123.3-26.3-15.1-69.2.6-112.6 38.4-4.3 3.7-8.5 7.6-12.5 11.5-2.7-2.6-5.5-5.2-8.3-7.7-45.5-40.4-91.1-57.4-118.4-41.5-26.2 15.2-34 60.3-23 116.7 1.1 5.6 2.3 11.1 3.7 16.7-6.4 1.8-12.7 3.8-18.6 5.9C38.3 196.2 0 225.4 0 255.6c0 31.2 40.8 62.5 96.3 81.5 4.5 1.5 9 3 13.6 4.3-1.5 6-2.8 11.9-4 18-10.5 55.5-2.3 99.5 23.9 114.6 27 15.6 72.4-.4 116.6-39.1 3.5-3.1 7-6.3 10.5-9.7 4.4 4.3 9 8.4 13.6 12.4 42.8 36.8 85.1 51.7 111.2 36.6 27-15.6 35.8-62.9 24.4-120.5-.9-4.4-1.9-8.9-3-13.5 3.2-.9 6.3-1.9 9.4-2.9 57.7-19.1 99.5-50 99.5-81.7 0-30.3-39.4-59.7-93.8-78.4zM282.9 92.3c37.2-32.4 71.9-45.1 87.7-36 16.9 9.7 23.4 48.9 12.8 100.4-.7 3.4-1.4 6.7-2.3 10-22.2-5-44.7-8.6-67.3-10.6-13-18.6-27.2-36.4-42.6-53.1 3.9-3.7 7.7-7.2 11.7-10.7zM167.2 307.5c5.1 8.7 10.3 17.4 15.8 25.9-15.6-1.7-31.1-4.2-46.4-7.5 4.4-14.4 9.9-29.3 16.3-44.5 4.6 8.8 9.3 17.5 14.3 26.1zm-30.3-120.3c14.4-3.2 29.7-5.8 45.6-7.8-5.3 8.3-10.5 16.8-15.4 25.4-4.9 8.5-9.7 17.2-14.2 26-6.3-14.9-11.6-29.5-16-43.6zm27.4 68.9c6.6-13.8 13.8-27.3 21.4-40.6s15.8-26.2 24.4-38.9c15-1.1 30.3-1.7 45.9-1.7s31 .6 45.9 1.7c8.5 12.6 16.6 25.5 24.3 38.7s14.9 26.7 21.7 40.4c-6.7 13.8-13.9 27.4-21.6 40.8-7.6 13.3-15.7 26.2-24.2 39-14.9 1.1-30.4 1.6-46.1 1.6s-30.9-.5-45.6-1.4c-8.7-12.7-16.9-25.7-24.6-39s-14.8-26.8-21.5-40.6zm180.6 51.2c5.1-8.8 9.9-17.7 14.6-26.7 6.4 14.5 12 29.2 16.9 44.3-15.5 3.5-31.2 6.2-47 8 5.4-8.4 10.5-17 15.5-25.6zm14.4-76.5c-4.7-8.8-9.5-17.6-14.5-26.2-4.9-8.5-10-16.9-15.3-25.2 16.1 2 31.5 4.7 45.9 8-4.6 14.8-10 29.2-16.1 43.4zM256.2 118.3c10.5 11.4 20.4 23.4 29.6 35.8-19.8-.9-39.7-.9-59.5 0 9.8-12.9 19.9-24.9 29.9-35.8zM140.2 57c16.8-9.8 54.1 4.2 93.4 39 2.5 2.2 5 4.6 7.6 7-15.5 16.7-29.8 34.5-42.9 53.1-22.6 2-45 5.5-67.2 10.4-1.3-5.1-2.4-10.3-3.5-15.5-9.4-48.4-3.2-84.9 12.6-94zm-24.5 263.6c-4.2-1.2-8.3-2.5-12.4-3.9-21.3-6.7-45.5-17.3-63-31.2-10.1-7-16.9-17.8-18.8-29.9 0-18.3 31.6-41.7 77.2-57.6 5.7-2 11.5-3.8 17.3-5.5 6.8 21.7 15 43 24.5 63.6-9.6 20.9-17.9 42.5-24.8 64.5zm116.6 98c-16.5 15.1-35.6 27.1-56.4 35.3-11.1 5.3-23.9 5.8-35.3 1.3-15.9-9.2-22.5-44.5-13.5-92 1.1-5.6 2.3-11.2 3.7-16.7 22.4 4.8 45 8.1 67.9 9.8 13.2 18.7 27.7 36.6 43.2 53.4-3.2 3.1-6.4 6.1-9.6 8.9zm24.5-24.3c-10.2-11-20.4-23.2-30.3-36.3 9.6.4 19.5.6 29.5.6 10.3 0 20.4-.2 30.4-.7-9.2 12.7-19.1 24.8-29.6 36.4zm130.7 30c-.9 12.2-6.9 23.6-16.5 31.3-15.9 9.2-49.8-2.8-86.4-34.2-4.2-3.6-8.4-7.5-12.7-11.5 15.3-16.9 29.4-34.8 42.2-53.6 22.9-1.9 45.7-5.4 68.2-10.5 1 4.1 1.9 8.2 2.7 12.2 4.9 21.6 5.7 44.1 2.5 66.3zm18.2-107.5c-2.8.9-5.6 1.8-8.5 2.6-7-21.8-15.6-43.1-25.5-63.8 9.6-20.4 17.7-41.4 24.5-62.9 5.2 1.5 10.2 3.1 15 4.7 46.6 16 79.3 39.8 79.3 58 0 19.6-34.9 44.9-84.8 61.4zm-149.7-15c25.3 0 45.8-20.5 45.8-45.8s-20.5-45.8-45.8-45.8c-25.3 0-45.8 20.5-45.8 45.8s20.5 45.8 45.8 45.8z"></path>
  </symbol>
  <symbol stroke="currentColor" fill="currentColor" stroke-width="0" xmlns="http://www.w3.org/2000/svg" viewBox="0 0 32 32" id="svelte">
    <path d="M10.99 1.97431C13.9093 0.114363 17.947 0.981629 19.9913 3.90757C20.4765 4.58662 20.8221 5.35574 21.006 6.16979C21.1898 6.98383 21.2092 7.82641 21.063 8.64806C20.9214 9.43262 20.6222 10.1804 20.1836 10.8461C20.8234 12.0671 21.0379 13.4666 20.793 14.8231C20.6485 15.6286 20.3376 16.395 19.8801 17.0734C19.4225 17.7518 18.8284 18.3273 18.1357 18.763L13.0086 22.0307C10.0897 23.8913 6.05178 23.0238 4.00745 20.0975C3.52241 19.4184 3.17783 18.6493 2.99394 17.8352C2.81004 17.0212 2.79053 16.1787 2.93654 15.357C3.07828 14.5723 3.37766 13.8245 3.81658 13.1587C3.17613 11.938 2.96114 10.5386 3.20565 9.18194C3.35026 8.37642 3.6614 7.60994 4.11916 6.93153C4.57692 6.25311 5.17122 5.6777 5.86406 5.24209L10.99 1.97431ZM8.04892 20.2498C8.8306 20.5396 9.68237 20.5825 10.4892 20.3727C10.8578 20.2742 11.2092 20.1198 11.531 19.9149L16.6586 16.6483C17.0751 16.3862 17.4323 16.0401 17.7075 15.6321C17.9827 15.2241 18.1697 14.7632 18.2567 14.2789C18.3445 13.7848 18.3327 13.2782 18.2221 12.7888C18.1115 12.2993 17.9043 11.8369 17.6125 11.4286C17.1374 10.7436 16.4635 10.221 15.6818 9.93121C14.9002 9.64145 14.0484 9.59854 13.2416 9.80828C12.873 9.90665 12.5216 10.061 12.1998 10.2659L10.2435 11.5125C10.1463 11.5741 10.0402 11.6205 9.929 11.6501C9.68583 11.7132 9.42916 11.7001 9.19365 11.6127C8.95813 11.5253 8.75511 11.3677 8.61198 11.1613C8.52418 11.0381 8.46182 10.8986 8.42855 10.7511C8.39527 10.6035 8.39174 10.4508 8.41816 10.3019C8.44437 10.156 8.50072 10.0172 8.58361 9.89433C8.6665 9.77146 8.77411 9.66724 8.89956 9.58832L14.0279 6.31995C14.1251 6.25833 14.2312 6.21193 14.3424 6.18235C14.5855 6.11913 14.8422 6.13208 15.0777 6.21944C15.3133 6.3068 15.5163 6.46436 15.6594 6.67083C15.816 6.89261 15.8893 7.1626 15.8662 7.43313L15.8485 7.62341L16.0392 7.6812C16.7597 7.89874 17.4378 8.23778 18.0442 8.6837L18.3068 8.87615L18.4033 8.58129C18.455 8.42472 18.496 8.2648 18.526 8.10264C18.6137 7.60859 18.602 7.10199 18.4913 6.61255C18.3807 6.12311 18.1735 5.66068 17.8818 5.25238C17.4066 4.56741 16.7327 4.04476 15.951 3.755C15.1693 3.46524 14.3175 3.42232 13.5107 3.63205C13.1421 3.73063 12.7908 3.88502 12.4689 4.08987L7.34135 7.35745C6.92461 7.61925 6.56709 7.96514 6.29167 8.37301C6.01625 8.78088 5.82899 9.24174 5.74186 9.72612C5.65406 10.2202 5.66581 10.7268 5.77643 11.2162C5.88704 11.7057 6.09429 12.1681 6.38602 12.5764C6.8612 13.2614 7.53514 13.784 8.31683 14.0738C9.09852 14.3636 9.9503 14.4065 10.7571 14.1967C11.1257 14.0982 11.477 13.944 11.799 13.7395L13.7554 12.4922C13.8527 12.4306 13.9587 12.3842 14.0699 12.3546C14.3131 12.2916 14.5698 12.3046 14.8053 12.392C15.0408 12.4795 15.2439 12.637 15.387 12.8435C15.4748 12.9667 15.5371 13.1061 15.5705 13.2536C15.6038 13.4011 15.6075 13.5538 15.5812 13.7027C15.5548 13.8486 15.4984 13.9875 15.4154 14.1103C15.3325 14.2332 15.2249 14.3375 15.0994 14.4165L9.97244 17.6846C9.87522 17.7463 9.76916 17.7927 9.65793 17.8222C9.4148 17.8855 9.15811 17.8726 8.92257 17.7852C8.68703 17.6978 8.48399 17.5403 8.34091 17.3338C8.18411 17.1123 8.11078 16.8424 8.13392 16.5721L8.15142 16.3818L7.96094 16.324C7.24041 16.1064 6.56232 15.7673 5.95593 15.3215L5.69311 15.1286L5.5966 15.4235C5.54476 15.58 5.50384 15.74 5.47413 15.9021C5.38636 16.3962 5.3981 16.9028 5.50868 17.3922C5.61926 17.8817 5.82645 18.3441 6.1181 18.7524C6.59329 19.4374 7.26723 19.96 8.04892 20.2498Z"></path>
  </symbol>
  <symbol stroke="currentColor" fill="currentColor" stroke-width="0" xmlns="http://www.w3.org/2000/svg" viewBox="0 0 32 32" id="tailwind">
    <path d="M11.9996 4.85999C8.82628 4.85999 6.84294 6.44665 6.04961 9.61999C7.23961 8.03332 8.62794 7.43832 10.2146 7.83499C11.12 8.06109 11.7666 8.71757 12.4835 9.44545C13.6507 10.6295 15.0004 12 17.9496 12C21.1229 12 23.1063 10.4133 23.8996 7.23998C22.7096 8.82665 21.3213 9.42165 19.7346 9.02499C18.8292 8.79889 18.1827 8.1424 17.4657 7.41452C16.2995 6.23047 14.9498 4.85999 11.9996 4.85999ZM6.04961 12C2.87628 12 0.892943 13.5867 0.0996094 16.76C1.28961 15.1733 2.67794 14.5783 4.26461 14.975C5.17 15.2011 5.81657 15.8576 6.53354 16.5855C7.70073 17.7695 9.05039 19.14 11.9996 19.14C15.1729 19.14 17.1563 17.5533 17.9496 14.38C16.7596 15.9667 15.3713 16.5617 13.7846 16.165C12.8792 15.9389 12.2326 15.2824 11.5157 14.5545C10.3495 13.3705 8.99982 12 6.04961 12Z"></path>
  </symbol>
  <symbol stroke="currentColor" fill="currentColor" stroke-width="0" role="img" xmlns="http://www.w3.org/2000/svg" viewBox="0 0 32 32" id="typescript">
    <path d="M1.125 0C.502 0 0 .502 0 1.125v21.75C0 23.498.502 24 1.125 24h21.75c.623 0 1.125-.502 1.125-1.125V1.125C24 .502 23.498 0 22.875 0zm17.363 9.75c.612 0 1.154.037 1.627.111a6.38 6.38 0 0 1 1.306.34v2.458a3.95 3.95 0 0 0-.643-.361 5.093 5.093 0 0 0-.717-.26 5.453 5.453 0 0 0-1.426-.2c-.3 0-.573.028-.819.086a2.1 2.1 0 0 0-.623.242c-.17.104-.3.229-.393.374a.888.888 0 0 0-.14.49c0 .196.053.373.156.529.104.156.252.304.443.444s.423.276.696.41c.273.135.582.274.926.416.47.197.892.407 1.266.628.374.222.695.473.963.753.268.279.472.598.614.957.142.359.214.776.214 1.253 0 .657-.125 1.21-.373 1.656a3.033 3.033 0 0 1-1.012 1.085 4.38 4.38 0 0 1-1.487.596c-.566.12-1.163.18-1.79.18a9.916 9.916 0 0 1-1.84-.164 5.544 5.544 0 0 1-1.512-.493v-2.63a5.033 5.033 0 0 0 3.237 1.2c.333 0 .624-.03.872-.09.249-.06.456-.144.623-.25.166-.108.29-.234.373-.38a1.023 1.023 0 0 0-.074-1.089 2.12 2.12 0 0 0-.537-.5 5.597 5.597 0 0 0-.807-.444 27.72 27.72 0 0 0-1.007-.436c-.918-.383-1.602-.852-2.053-1.405-.45-.553-.676-1.222-.676-2.005 0-.614.123-1.141.369-1.582.246-.441.58-.804 1.004-1.089a4.494 4.494 0 0 1 1.47-.629 7.536 7.536 0 0 1 1.77-.201zm-15.113.188h9.563v2.166H9.506v9.646H6.789v-9.646H3.375z"></path>
  </symbol>
</svg>