<svg version="1.1" id="Layer_1" xmlns="http://www.w3.org/2000/svg" xmlns:xlink="http://www.w3.org/1999/xlink" x="0px" y="0px"
	 width="100%" viewBox="0 0 500 500" enable-background="new 0 0 500 500" xml:space="preserve">
<path fill="#000000" opacity="1.000000" stroke="none" 
	d="
M282.000000,501.000000 
	C188.000015,501.000000 94.500046,501.000000 1.000050,501.000000 
	C1.000033,334.333405 1.000033,167.666794 1.000017,1.000140 
	C167.666565,1.000093 334.333130,1.000093 500.999756,1.000046 
	C500.999847,167.666519 500.999847,334.333038 500.999939,500.999786 
	C428.166656,501.000000 355.333344,501.000000 282.000000,501.000000 
M391.815430,209.554565 
	C393.208435,197.503799 395.303406,185.484436 395.843994,173.395554 
	C396.874969,150.340744 395.902924,127.492546 386.478912,105.709732 
	C380.064514,90.883385 370.425262,78.536644 357.736450,69.207275 
	C348.345917,62.302952 337.472595,57.097561 326.668976,52.534012 
	C318.108704,48.918053 308.753113,46.893280 299.564056,45.139954 
	C290.507568,43.411922 281.216431,42.913559 271.609436,41.112457 
	C264.867950,41.075817 258.125397,40.957909 251.385483,41.045048 
	C248.906860,41.077099 246.434494,41.593632 243.108307,41.970360 
	C240.688538,42.310326 238.265869,42.630917 235.849503,42.993530 
	C223.956940,44.778210 211.934082,45.977909 200.219910,48.570835 
	C192.109985,50.365959 184.317032,53.821800 176.576340,57.006794 
	C162.210556,62.917774 149.430878,71.497383 138.362747,82.301559 
	C131.936783,88.574265 125.982353,95.513206 120.835915,102.866379 
	C114.637100,111.723183 108.721016,120.962151 104.139778,130.719864 
	C98.499214,142.733871 94.266403,155.418060 89.622314,167.886032 
	C87.809029,172.754166 86.180817,177.745850 85.082222,182.814331 
	C82.700287,193.803619 80.648735,204.866486 78.589561,215.923019 
	C77.274734,222.982880 76.078239,230.068954 75.025917,237.172501 
	C73.612022,246.716827 72.199135,256.268433 71.140388,265.856079 
	C70.221085,274.181061 69.795029,282.560486 68.977806,291.857452 
	C69.037262,300.579590 69.096718,309.301697 69.026535,318.933594 
	C70.209244,329.672577 70.367775,340.654266 72.839859,351.087738 
	C75.778152,363.488922 80.365494,375.546478 84.862816,387.518311 
	C89.641281,400.238556 98.025246,410.803223 107.712067,420.051300 
	C118.261826,430.123230 130.494492,437.823578 144.266144,443.135162 
	C163.204910,450.439606 182.655594,454.702087 203.909454,455.001282 
	C212.950256,454.951111 221.991058,454.900970 231.954025,454.974701 
	C239.382370,454.609253 246.887161,454.784485 254.220535,453.747437 
	C264.380432,452.310669 274.451294,450.145721 284.488007,447.960480 
	C298.535797,444.901886 312.288727,440.460663 324.746246,433.424713 
	C337.580139,426.176208 349.526764,417.343231 361.735413,409.018372 
	C363.243530,407.989990 364.631744,405.939911 364.946899,404.163086 
	C365.973053,398.377075 366.388672,392.486115 367.200439,386.657959 
	C368.394989,378.081207 369.838806,369.538391 370.972473,360.954163 
	C372.174988,351.848816 372.980377,342.689941 374.245605,333.594269 
	C376.024017,320.809448 378.215698,308.081696 379.955658,295.292114 
	C381.832886,281.493744 383.404724,267.653687 385.087891,253.829178 
	C386.413818,242.939392 387.706421,232.045532 389.798431,220.794785 
	C388.356079,220.197006 386.914673,219.079376 385.471191,219.076706 
	C336.516449,218.986115 287.561462,219.001450 238.606522,219.001450 
	C237.125107,219.001450 235.643692,219.001450 234.009338,219.001450 
	C234.076111,220.459518 234.128952,221.613739 233.878525,223.566147 
	C232.253113,234.368164 230.567139,245.161499 229.020981,255.974854 
	C227.724182,265.044464 226.549820,274.132202 225.396194,283.221405 
	C224.264542,292.137512 223.227417,301.065613 221.996078,310.732147 
	C222.047684,311.486450 222.099274,312.240784 221.997589,313.454010 
	C221.997589,313.454010 221.896500,313.927155 221.359055,314.440369 
	C222.961380,314.626892 224.563110,314.969208 226.166107,314.975220 
	C238.302094,315.020599 250.438522,314.966248 262.574188,315.042419 
	C264.106781,315.052002 265.635712,315.638947 267.027893,316.835663 
	C265.973145,326.628326 265.120026,336.449860 263.726807,346.194122 
	C263.362427,348.742615 261.856689,352.501099 259.949951,353.207886 
	C253.256454,355.688873 246.250153,357.908112 239.193283,358.681091 
	C230.127991,359.674072 220.753845,360.265289 211.773651,359.069794 
	C197.069839,357.112366 188.295059,347.443024 184.040222,333.492096 
	C177.475418,311.966980 179.570145,290.046814 181.501953,268.235077 
	C182.727020,254.403000 184.823380,240.624390 187.099060,226.916443 
	C188.965271,215.674988 191.070572,204.401764 194.185440,193.460175 
	C197.019821,183.503784 200.567444,173.574219 205.245880,164.367157 
	C210.194412,154.628494 217.235977,146.349274 227.997284,141.854996 
	C239.110519,137.213715 250.568008,135.838074 262.085815,138.289658 
	C267.551270,139.452972 273.710236,142.290298 277.251801,146.369080 
	C282.191132,152.057663 284.976990,159.901550 284.790985,167.652008 
	C284.451782,181.783691 283.098358,195.891037 282.474731,210.810944 
	C317.999176,210.871063 353.523590,210.936569 389.048065,210.951553 
	C389.736908,210.951843 390.426025,210.357361 391.815430,209.554565 
z"/>
<path fill="#95DD28" opacity="1.000000" stroke="none" 
	d="
M272.028259,41.875679 
	C281.216431,42.913559 290.507568,43.411922 299.564056,45.139954 
	C308.753113,46.893280 318.108704,48.918053 326.668976,52.534012 
	C337.472595,57.097561 348.345917,62.302952 357.736450,69.207275 
	C370.425262,78.536644 380.064514,90.883385 386.478912,105.709732 
	C395.902924,127.492546 396.874969,150.340744 395.843994,173.395554 
	C395.303406,185.484436 393.208435,197.503799 390.989258,209.786652 
	C354.164734,210.015335 318.166382,210.011932 282.168060,210.008530 
	C283.098358,195.891037 284.451782,181.783691 284.790985,167.652008 
	C284.976990,159.901550 282.191132,152.057663 277.251801,146.369080 
	C273.710236,142.290298 267.551270,139.452972 262.085815,138.289658 
	C250.568008,135.838074 239.110519,137.213715 227.997284,141.854996 
	C217.235977,146.349274 210.194412,154.628494 205.245880,164.367157 
	C200.567444,173.574219 197.019821,183.503784 194.185440,193.460175 
	C191.070572,204.401764 188.965271,215.674988 187.099060,226.916443 
	C184.823380,240.624390 182.727020,254.403000 181.501953,268.235077 
	C179.570145,290.046814 177.475418,311.966980 184.040222,333.492096 
	C188.295059,347.443024 197.069839,357.112366 211.773651,359.069794 
	C220.753845,360.265289 230.127991,359.674072 239.193283,358.681091 
	C246.250153,357.908112 253.256454,355.688873 259.949951,353.207886 
	C261.856689,352.501099 263.362427,348.742615 263.726807,346.194122 
	C265.120026,336.449860 265.973145,326.628326 267.226654,316.106934 
	C265.859802,314.919678 264.297821,314.077698 262.727936,314.062744 
	C249.118271,313.933228 235.507172,313.952301 221.896500,313.927155 
	C221.896500,313.927155 221.997589,313.454010 222.264709,313.008484 
	C222.404160,311.704773 222.276474,310.846619 222.148788,309.988464 
	C223.227417,301.065613 224.264542,292.137512 225.396194,283.221405 
	C226.549820,274.132202 227.724182,265.044464 229.020981,255.974854 
	C230.567139,245.161499 232.253113,234.368164 234.248016,222.881439 
	C236.403473,221.460892 238.187881,220.086716 239.975632,220.082367 
	C287.961945,219.965469 335.948639,219.977356 383.935181,220.038269 
	C385.628510,220.040421 387.320953,220.765396 389.013794,221.153488 
	C387.706421,232.045532 386.413818,242.939392 385.087891,253.829178 
	C383.404724,267.653687 381.832886,281.493744 379.955658,295.292114 
	C378.215698,308.081696 376.024017,320.809448 374.245605,333.594269 
	C372.980377,342.689941 372.174988,351.848816 370.972473,360.954163 
	C369.838806,369.538391 368.394989,378.081207 367.200439,386.657959 
	C366.388672,392.486115 365.973053,398.377075 364.946899,404.163086 
	C364.631744,405.939911 363.243530,407.989990 361.735413,409.018372 
	C349.526764,417.343231 337.580139,426.176208 324.746246,433.424713 
	C312.288727,440.460663 298.535797,444.901886 284.488007,447.960480 
	C274.451294,450.145721 264.380432,452.310669 254.220535,453.747437 
	C246.887161,454.784485 239.382370,454.609253 231.156128,454.664185 
	C221.230835,454.517975 212.103439,454.682312 202.976028,454.846619 
	C182.655594,454.702087 163.204910,450.439606 144.266144,443.135162 
	C130.494492,437.823578 118.261826,430.123230 107.712067,420.051300 
	C98.025246,410.803223 89.641281,400.238556 84.862816,387.518311 
	C80.365494,375.546478 75.778152,363.488922 72.839859,351.087738 
	C70.367775,340.654266 70.209244,329.672577 69.358162,318.154663 
	C69.775627,312.267426 69.983856,307.157288 69.906418,302.051453 
	C69.850082,298.336609 69.416420,294.627533 69.150978,290.915863 
	C69.795029,282.560486 70.221085,274.181061 71.140388,265.856079 
	C72.199135,256.268433 73.612022,246.716827 75.025917,237.172501 
	C76.078239,230.068954 77.274734,222.982880 78.589561,215.923019 
	C80.648735,204.866486 82.700287,193.803619 85.082222,182.814331 
	C86.180817,177.745850 87.809029,172.754166 89.622314,167.886032 
	C94.266403,155.418060 98.499214,142.733871 104.139778,130.719864 
	C108.721016,120.962151 114.637100,111.723183 120.835915,102.866379 
	C125.982353,95.513206 131.936783,88.574265 138.362747,82.301559 
	C149.430878,71.497383 162.210556,62.917774 176.576340,57.006794 
	C184.317032,53.821800 192.109985,50.365959 200.219910,48.570835 
	C211.934082,45.977909 223.956940,44.778210 235.849503,42.993530 
	C238.265869,42.630917 240.688538,42.310326 244.000885,41.995651 
	C253.938400,41.972519 262.983337,41.924099 272.028259,41.875679 
M372.425171,234.382950 
	C370.855316,233.922867 369.286194,233.064072 367.715454,233.061020 
	C329.263824,232.986313 290.811951,232.991272 252.360260,233.047058 
	C250.940857,233.049118 249.522385,233.707199 247.731491,234.786896 
	C244.766312,256.199493 241.801147,277.612061 238.396362,299.568665 
	C239.416489,300.042725 240.435104,300.925476 241.456940,300.929230 
	C255.641907,300.981262 269.827301,300.912842 284.705505,301.291931 
	C283.813110,308.225891 282.875885,315.154419 282.038452,322.095001 
	C280.644226,333.650330 279.374573,345.220978 277.921387,356.768677 
	C277.460815,360.428650 275.666260,362.937256 271.975677,364.717773 
	C253.087433,373.830353 232.999405,374.703400 212.645569,373.908295 
	C209.598618,373.789246 206.533417,372.972565 203.566956,372.152161 
	C187.625275,367.743378 177.390457,357.563171 171.316635,342.116608 
	C167.082825,331.349396 164.977020,320.409424 165.117950,309.095093 
	C165.311462,293.556946 165.884384,277.995178 167.099152,262.506592 
	C168.187134,248.634216 169.585175,234.694122 172.264999,221.062775 
	C175.367554,205.281281 179.667542,189.703461 184.104218,174.225403 
	C188.112625,160.241364 195.166565,147.371216 205.988586,137.821075 
	C223.802261,122.100975 245.495773,120.082466 267.952637,124.518997 
	C282.911957,127.474312 292.303986,137.259705 296.720642,151.509308 
	C300.573151,163.938919 300.322754,176.895905 299.908783,189.769257 
	C299.834564,192.077118 299.232941,194.368027 298.856781,196.782501 
	C325.681854,196.782501 351.626251,196.782501 377.856812,196.782501 
	C378.917938,187.171646 380.530640,177.767136 380.876465,168.316284 
	C381.533752,150.354034 380.633026,132.569565 374.061218,115.377602 
	C368.234070,100.133675 358.831512,87.766747 345.721222,78.519836 
	C332.422607,69.140099 317.411316,63.785133 301.254822,60.707710 
	C286.469696,57.891487 271.650696,56.809662 256.738068,56.100765 
	C252.497635,55.899193 248.191101,56.510223 243.949142,57.028843 
	C232.252090,58.458923 220.347153,59.097469 208.954559,61.837540 
	C198.808014,64.277916 189.094742,68.781204 179.440857,72.953873 
	C159.521866,81.563416 144.483704,96.125107 131.973969,113.458580 
	C120.786552,128.959885 112.960030,146.169769 106.911125,164.245392 
	C99.909897,185.166779 94.569328,206.458008 91.958076,228.405594 
	C89.383743,250.042953 85.793396,271.601746 84.261627,293.308807 
	C82.776581,314.353760 84.069839,335.509430 89.127350,356.168945 
	C94.093040,376.453400 102.736420,395.019775 118.187126,409.432922 
	C129.278351,419.779388 142.261093,427.467834 156.945557,432.058746 
	C173.160202,437.128021 189.666504,439.685608 206.670776,440.512299 
	C226.977295,441.499512 246.984573,440.433167 266.782623,435.952515 
	C277.347412,433.561554 287.954437,431.214203 298.313232,428.087860 
	C316.134277,422.709351 331.428986,412.411133 346.505219,401.870728 
	C348.308411,400.610077 350.366211,398.611267 350.765076,396.642456 
	C352.191895,389.599487 353.040253,382.432922 353.950134,375.293091 
	C355.421173,363.749664 356.706970,352.182587 358.183380,340.639862 
	C359.720001,328.626434 361.448181,316.637451 362.981995,304.623688 
	C364.124298,295.676514 364.968689,286.690582 366.162872,277.750916 
	C368.069824,263.476074 370.157043,249.225342 372.425171,234.382950 
z"/>
<path fill="#CBEE94" opacity="1.000000" stroke="none" 
	d="
M389.406128,220.974136 
	C387.320953,220.765396 385.628510,220.040421 383.935181,220.038269 
	C335.948639,219.977356 287.961945,219.965469 239.975632,220.082367 
	C238.187881,220.086716 236.403473,221.460892 234.399658,222.482330 
	C234.128952,221.613739 234.076111,220.459518 234.009338,219.001450 
	C235.643692,219.001450 237.125107,219.001450 238.606522,219.001450 
	C287.561462,219.001450 336.516449,218.986115 385.471191,219.076706 
	C386.914673,219.079376 388.356079,220.197006 389.406128,220.974136 
z"/>
<path fill="#9DE038" opacity="1.000000" stroke="none" 
	d="
M282.321411,210.409729 
	C318.166382,210.011932 354.164734,210.015335 390.639038,210.029572 
	C390.426025,210.357361 389.736908,210.951843 389.048065,210.951553 
	C353.523590,210.936569 317.999176,210.871063 282.321411,210.409729 
z"/>
<path fill="#A1E141" opacity="1.000000" stroke="none" 
	d="
M221.627777,314.183777 
	C235.507172,313.952301 249.118271,313.933228 262.727936,314.062744 
	C264.297821,314.077698 265.859802,314.919678 267.295898,315.668304 
	C265.635712,315.638947 264.106781,315.052002 262.574188,315.042419 
	C250.438522,314.966248 238.302094,315.020599 226.166107,314.975220 
	C224.563110,314.969208 222.961380,314.626892 221.627777,314.183777 
z"/>
<path fill="#EFFADF" opacity="1.000000" stroke="none" 
	d="
M271.818848,41.494068 
	C262.983337,41.924099 253.938400,41.972519 244.426376,41.955059 
	C246.434494,41.593632 248.906860,41.077099 251.385483,41.045048 
	C258.125397,40.957909 264.867950,41.075817 271.818848,41.494068 
z"/>
<path fill="#ACE557" opacity="1.000000" stroke="none" 
	d="
M203.442749,454.923950 
	C212.103439,454.682312 221.230835,454.517975 230.695053,454.602234 
	C221.991058,454.900970 212.950256,454.951111 203.442749,454.923950 
z"/>
<path fill="#BCEA75" opacity="1.000000" stroke="none" 
	d="
M69.064392,291.386658 
	C69.416420,294.627533 69.850082,298.336609 69.906418,302.051453 
	C69.983856,307.157288 69.775627,312.267426 69.422989,317.699768 
	C69.096718,309.301697 69.037262,300.579590 69.064392,291.386658 
z"/>
<path fill="#A1E141" opacity="1.000000" stroke="none" 
	d="
M222.072433,310.360291 
	C222.276474,310.846619 222.404160,311.704773 222.341354,312.778992 
	C222.099274,312.240784 222.047684,311.486450 222.072433,310.360291 
z"/>
<path fill="#000000" opacity="1.000000" stroke="none" 
	d="
M238.835983,299.024658 
	C241.801147,277.612061 244.766312,256.199493 248.379227,234.397598 
	C288.380768,234.005539 327.734558,233.990799 367.088287,234.040878 
	C368.781952,234.043030 370.474792,234.642960 372.168030,234.964417 
	C370.157043,249.225342 368.069824,263.476074 366.162872,277.750916 
	C364.968689,286.690582 364.124298,295.676514 362.981995,304.623688 
	C361.448181,316.637451 359.720001,328.626434 358.183380,340.639862 
	C356.706970,352.182587 355.421173,363.749664 353.950134,375.293091 
	C353.040253,382.432922 352.191895,389.599487 350.765076,396.642456 
	C350.366211,398.611267 348.308411,400.610077 346.505219,401.870728 
	C331.428986,412.411133 316.134277,422.709351 298.313232,428.087860 
	C287.954437,431.214203 277.347412,433.561554 266.782623,435.952515 
	C246.984573,440.433167 226.977295,441.499512 206.670776,440.512299 
	C189.666504,439.685608 173.160202,437.128021 156.945557,432.058746 
	C142.261093,427.467834 129.278351,419.779388 118.187126,409.432922 
	C102.736420,395.019775 94.093040,376.453400 89.127350,356.168945 
	C84.069839,335.509430 82.776581,314.353760 84.261627,293.308807 
	C85.793396,271.601746 89.383743,250.042953 91.958076,228.405594 
	C94.569328,206.458008 99.909897,185.166779 106.911125,164.245392 
	C112.960030,146.169769 120.786552,128.959885 131.973969,113.458580 
	C144.483704,96.125107 159.521866,81.563416 179.440857,72.953873 
	C189.094742,68.781204 198.808014,64.277916 208.954559,61.837540 
	C220.347153,59.097469 232.252090,58.458923 243.949142,57.028843 
	C248.191101,56.510223 252.497635,55.899193 256.738068,56.100765 
	C271.650696,56.809662 286.469696,57.891487 301.254822,60.707710 
	C317.411316,63.785133 332.422607,69.140099 345.721222,78.519836 
	C358.831512,87.766747 368.234070,100.133675 374.061218,115.377602 
	C380.633026,132.569565 381.533752,150.354034 380.876465,168.316284 
	C380.530640,177.767136 378.917938,187.171646 377.856812,196.782501 
	C351.626251,196.782501 325.681854,196.782501 298.856781,196.782501 
	C299.232941,194.368027 299.834564,192.077118 299.908783,189.769257 
	C300.322754,176.895905 300.573151,163.938919 296.720642,151.509308 
	C292.303986,137.259705 282.911957,127.474312 267.952637,124.518997 
	C245.495773,120.082466 223.802261,122.100975 205.988586,137.821075 
	C195.166565,147.371216 188.112625,160.241364 184.104218,174.225403 
	C179.667542,189.703461 175.367554,205.281281 172.264999,221.062775 
	C169.585175,234.694122 168.187134,248.634216 167.099152,262.506592 
	C165.884384,277.995178 165.311462,293.556946 165.117950,309.095093 
	C164.977020,320.409424 167.082825,331.349396 171.316635,342.116608 
	C177.390457,357.563171 187.625275,367.743378 203.566956,372.152161 
	C206.533417,372.972565 209.598618,373.789246 212.645569,373.908295 
	C232.999405,374.703400 253.087433,373.830353 271.975677,364.717773 
	C275.666260,362.937256 277.460815,360.428650 277.921387,356.768677 
	C279.374573,345.220978 280.644226,333.650330 282.038452,322.095001 
	C282.875885,315.154419 283.813110,308.225891 284.135254,300.716492 
	C270.330780,300.094055 257.096313,300.080902 243.862839,299.957672 
	C242.184464,299.942078 240.511475,299.349792 238.835983,299.024658 
z"/>
<path fill="#A1E141" opacity="1.000000" stroke="none" 
	d="
M372.296600,234.673676 
	C370.474792,234.642960 368.781952,234.043030 367.088287,234.040878 
	C327.734558,233.990799 288.380768,234.005539 248.565216,234.033936 
	C249.522385,233.707199 250.940857,233.049118 252.360260,233.047058 
	C290.811951,232.991272 329.263824,232.986313 367.715454,233.061020 
	C369.286194,233.064072 370.855316,233.922867 372.296600,234.673676 
z"/>
<path fill="#CAEE93" opacity="1.000000" stroke="none" 
	d="
M238.616180,299.296661 
	C240.511475,299.349792 242.184464,299.942078 243.862839,299.957672 
	C257.096313,300.080902 270.330780,300.094055 283.788788,300.507446 
	C269.827301,300.912842 255.641907,300.981262 241.456940,300.929230 
	C240.435104,300.925476 239.416489,300.042725 238.616180,299.296661 
z"/>
</svg>