<svg xmlns="http://www.w3.org/2000/svg" xmlns:xlink="http://www.w3.org/1999/xlink" width="500" zoomAndPan="magnify" viewBox="0 0 375 374.999991" height="500" preserveAspectRatio="xMidYMid meet" version="1.0"><defs><g/></defs><rect x="-37.5" width="450" fill="#ffffff" y="-37.499999" height="449.999989" fill-opacity="1"/><rect x="-37.5" width="450" fill="#000000" y="-37.499999" height="449.999989" fill-opacity="1"/><g fill="#ffffff" fill-opacity="1"><g transform="translate(97.593748, 264.175859)"><g><path d="M 101.484375 3.125 C 88.535156 3.125 76.421875 0.773438 65.140625 -3.921875 C 53.867188 -8.617188 43.898438 -15.085938 35.234375 -23.328125 C 26.566406 -31.578125 19.832031 -41.128906 15.03125 -51.984375 C 10.226562 -62.847656 7.828125 -74.546875 7.828125 -87.078125 C 7.828125 -99.609375 10.226562 -111.300781 15.03125 -122.15625 C 19.832031 -133.019531 26.566406 -142.570312 35.234375 -150.8125 C 43.898438 -159.0625 53.867188 -165.585938 65.140625 -170.390625 C 76.421875 -175.203125 88.535156 -177.609375 101.484375 -177.609375 C 114.847656 -177.609375 126.175781 -175.148438 135.46875 -170.234375 C 144.757812 -165.328125 151.859375 -159.113281 156.765625 -151.59375 C 161.679688 -144.082031 164.140625 -136.253906 164.140625 -128.109375 C 164.140625 -121.429688 162.363281 -115.0625 158.8125 -109 C 155.257812 -102.945312 149.828125 -99.921875 142.515625 -99.921875 C 137.921875 -99.921875 133.535156 -101.90625 129.359375 -105.875 C 125.179688 -109.84375 123.09375 -114.75 123.09375 -120.59375 C 123.09375 -120.59375 124.347656 -121.476562 126.859375 -123.25 C 129.367188 -125.03125 132.082031 -128.738281 135 -134.375 C 136.257812 -136.882812 137.359375 -139.960938 138.296875 -143.609375 C 139.234375 -147.265625 139.335938 -151.078125 138.609375 -155.046875 C 137.878906 -159.015625 135.425781 -162.671875 131.25 -166.015625 C 123.9375 -171.441406 115.0625 -173.84375 104.625 -173.21875 C 92.925781 -172.382812 83.734375 -168.363281 77.046875 -161.15625 C 70.367188 -153.957031 65.617188 -144.09375 62.796875 -131.5625 C 59.984375 -119.03125 58.578125 -104.304688 58.578125 -87.390625 C 58.578125 -71.304688 59.929688 -56.894531 62.640625 -44.15625 C 65.359375 -31.425781 69.847656 -21.300781 76.109375 -13.78125 C 82.378906 -6.257812 90.835938 -1.976562 101.484375 -0.9375 C 104.617188 -0.519531 108.378906 -0.625 112.765625 -1.25 C 117.148438 -1.875 121.742188 -3.234375 126.546875 -5.328125 L 126.546875 -72.671875 L 105.875 -72.671875 L 105.875 -76.109375 L 162.875 -76.109375 L 162.875 -3.453125 L 137.203125 -3.453125 C 131.554688 -1.359375 125.757812 0.257812 119.8125 1.40625 C 113.863281 2.550781 107.753906 3.125 101.484375 3.125 Z M 101.484375 3.125 "/></g></g></g></svg>